<svg xmlns="http://www.w3.org/2000/svg">
    <defs>
        <symbol id="logo" xmlns="http://www.w3.org/2000/svg">
        <path d="M18.92 1.248V18H15.56V7.104L11.072 18H8.528L4.016 7.104V18H0.656V1.248H4.472L9.8 13.704L15.128 1.248H18.92Z" fill="#7E74F1"/>
        <path d="M21.3779 11.304C21.3779 9.96 21.6419 8.768 22.1699 7.728C22.7139 6.688 23.4419 5.888 24.3539 5.328C25.2819 4.768 26.3139 4.488 27.4499 4.488C28.4419 4.488 29.3059 4.688 30.0419 5.088C30.7939 5.488 31.3939 5.992 31.8419 6.6V4.704H35.2259V18H31.8419V16.056C31.4099 16.68 30.8099 17.2 30.0419 17.616C29.2899 18.016 28.4179 18.216 27.4259 18.216C26.3059 18.216 25.2819 17.928 24.3539 17.352C23.4419 16.776 22.7139 15.968 22.1699 14.928C21.6419 13.872 21.3779 12.664 21.3779 11.304ZM31.8419 11.352C31.8419 10.536 31.6819 9.84 31.3619 9.264C31.0419 8.672 30.6099 8.224 30.0659 7.92C29.5219 7.6 28.9379 7.44 28.3139 7.44C27.6899 7.44 27.1139 7.592 26.5859 7.896C26.0579 8.2 25.6259 8.648 25.2899 9.24C24.9699 9.816 24.8099 10.504 24.8099 11.304C24.8099 12.104 24.9699 12.808 25.2899 13.416C25.6259 14.008 26.0579 14.464 26.5859 14.784C27.1299 15.104 27.7059 15.264 28.3139 15.264C28.9379 15.264 29.5219 15.112 30.0659 14.808C30.6099 14.488 31.0419 14.04 31.3619 13.464C31.6819 12.872 31.8419 12.168 31.8419 11.352ZM45.9956 4.512C47.0036 4.512 47.8996 4.736 48.6836 5.184C49.4676 5.616 50.0756 6.264 50.5076 7.128C50.9556 7.976 51.1796 9 51.1796 10.2V18H47.8196V10.656C47.8196 9.6 47.5556 8.792 47.0276 8.232C46.4996 7.656 45.7796 7.368 44.8676 7.368C43.9396 7.368 43.2036 7.656 42.6596 8.232C42.1316 8.792 41.8676 9.6 41.8676 10.656V18H38.5076V0.24H41.8676V6.36C42.2996 5.784 42.8756 5.336 43.5956 5.016C44.3156 4.68 45.1156 4.512 45.9956 4.512ZM61.7428 4.512C63.3268 4.512 64.6068 5.016 65.5828 6.024C66.5588 7.016 67.0468 8.408 67.0468 10.2V18H63.6868V10.656C63.6868 9.6 63.4228 8.792 62.8948 8.232C62.3668 7.656 61.6468 7.368 60.7348 7.368C59.8068 7.368 59.0708 7.656 58.5268 8.232C57.9988 8.792 57.7348 9.6 57.7348 10.656V18H54.3748V4.704H57.7348V6.36C58.1828 5.784 58.7508 5.336 59.4388 5.016C60.1428 4.68 60.9108 4.512 61.7428 4.512ZM76.1459 18.216C74.8659 18.216 73.7139 17.936 72.6899 17.376C71.6659 16.8 70.8579 15.992 70.2659 14.952C69.6899 13.912 69.4019 12.712 69.4019 11.352C69.4019 9.992 69.6979 8.792 70.2899 7.752C70.8979 6.712 71.7219 5.912 72.7619 5.352C73.8019 4.776 74.9619 4.488 76.2419 4.488C77.5219 4.488 78.6819 4.776 79.7219 5.352C80.7619 5.912 81.5779 6.712 82.1699 7.752C82.7779 8.792 83.0819 9.992 83.0819 11.352C83.0819 12.712 82.7699 13.912 82.1459 14.952C81.5379 15.992 80.7059 16.8 79.6499 17.376C78.6099 17.936 77.4419 18.216 76.1459 18.216ZM76.1459 15.288C76.7539 15.288 77.3219 15.144 77.8499 14.856C78.3939 14.552 78.8259 14.104 79.1459 13.512C79.4659 12.92 79.6259 12.2 79.6259 11.352C79.6259 10.088 79.2899 9.12 78.6179 8.448C77.9619 7.76 77.1539 7.416 76.1939 7.416C75.2339 7.416 74.4259 7.76 73.7699 8.448C73.1299 9.12 72.8099 10.088 72.8099 11.352C72.8099 12.616 73.1219 13.592 73.7459 14.28C74.3859 14.952 75.1859 15.288 76.1459 15.288ZM91.4506 18.216C90.1706 18.216 89.0186 17.936 87.9946 17.376C86.9706 16.8 86.1626 15.992 85.5706 14.952C84.9946 13.912 84.7066 12.712 84.7066 11.352C84.7066 9.992 85.0026 8.792 85.5946 7.752C86.2026 6.712 87.0266 5.912 88.0666 5.352C89.1066 4.776 90.2666 4.488 91.5466 4.488C92.8266 4.488 93.9866 4.776 95.0266 5.352C96.0666 5.912 96.8826 6.712 97.4746 7.752C98.0826 8.792 98.3866 9.992 98.3866 11.352C98.3866 12.712 98.0746 13.912 97.4506 14.952C96.8426 15.992 96.0106 16.8 94.9546 17.376C93.9146 17.936 92.7466 18.216 91.4506 18.216ZM91.4506 15.288C92.0586 15.288 92.6266 15.144 93.1546 14.856C93.6986 14.552 94.1306 14.104 94.4506 13.512C94.7706 12.92 94.9306 12.2 94.9306 11.352C94.9306 10.088 94.5946 9.12 93.9226 8.448C93.2666 7.76 92.4586 7.416 91.4986 7.416C90.5386 7.416 89.7306 7.76 89.0746 8.448C88.4346 9.12 88.1146 10.088 88.1146 11.352C88.1146 12.616 88.4266 13.592 89.0506 14.28C89.6906 14.952 90.4906 15.288 91.4506 15.288ZM104.211 6.768C104.643 6.064 105.203 5.512 105.891 5.112C106.595 4.712 107.395 4.512 108.291 4.512V8.04H107.403C106.347 8.04 105.547 8.288 105.003 8.784C104.475 9.28 104.211 10.144 104.211 11.376V18H100.851V4.704H104.211V6.768Z" fill="black"/>
        </symbol>
        <symbol id="more-links" xmlns="http://www.w3.org/2000/svg">
            <path fill-rule="evenodd" clip-rule="evenodd" d="M1.29456 0.302994C0.633558 0.302994 0.0965576 0.839994 0.0965576 1.49899C0.0965576 2.15899 0.633558 2.69699 1.29456 2.69699C1.95556 2.69699 2.49256 2.15899 2.49256 1.49899C2.49256 0.839994 1.95556 0.302994 1.29456 0.302994ZM5.77366 0.302994C5.11266 0.302994 4.57566 0.839994 4.57566 1.49899C4.57566 2.15899 5.11266 2.69699 5.77366 2.69699C6.43466 2.69699 6.97166 2.15899 6.97166 1.49899C6.97166 0.839994 6.43466 0.302994 5.77366 0.302994ZM9.05506 1.49899C9.05506 0.839994 9.59206 0.302994 10.2531 0.302994C10.9141 0.302994 11.4511 0.839994 11.4511 1.49899C11.4511 2.15899 10.9141 2.69699 10.2531 2.69699C9.59206 2.69699 9.05506 2.15899 9.05506 1.49899Z"/>
        </symbol>
        <symbol id="moon-icon" xmlns="http://www.w3.org/2000/svg">
            <path d="M3.45105 17.5L3.60056 16.7651C3.30142 16.7042 2.99524 16.8307 2.82633 17.085C2.65741 17.3393 2.65947 17.6706 2.83153 17.9227L3.45105 17.5ZM11.451 3.5L11.4708 2.75026C11.1648 2.74222 10.8847 2.92087 10.7629 3.20166C10.6412 3.48244 10.7023 3.80903 10.9173 4.02685L11.451 3.5ZM21.201 12.5C21.201 7.18571 16.8584 2.89187 11.4708 2.75026L11.4313 4.24974C16.0452 4.37102 19.701 8.03726 19.701 12.5H21.201ZM11.451 22.25C16.9921 22.25 21.201 17.8776 21.201 12.5H19.701C19.701 17.0653 16.1477 20.75 11.451 20.75V22.25ZM2.83153 17.9227C4.64405 20.5791 7.99904 22.25 11.451 22.25V20.75C8.44527 20.75 5.57681 19.2847 4.07057 17.0773L2.83153 17.9227ZM3.30154 18.2349C7.64261 19.118 11.363 16.8566 13.2142 13.6399C15.0678 10.4189 15.1042 6.13357 11.9848 2.97315L10.9173 4.02685C13.4808 6.62418 13.4932 10.1476 11.9141 12.8917C10.3326 15.6399 7.21152 17.4996 3.60056 16.7651L3.30154 18.2349Z"/>
        </symbol>
        <symbol id="sun-icon" xmlns="http://www.w3.org/2000/svg">
            <path d="M3 11.25C2.58579 11.25 2.25 11.5858 2.25 12C2.25 12.4142 2.58579 12.75 3 12.75V11.25ZM5 12.75C5.41421 12.75 5.75 12.4142 5.75 12C5.75 11.5858 5.41421 11.25 5 11.25V12.75ZM4.46973 18.4697C4.17684 18.7626 4.17684 19.2374 4.46973 19.5303C4.76262 19.8232 5.2375 19.8232 5.53039 19.5303L4.46973 18.4697ZM7.53039 17.5303C7.82328 17.2374 7.82328 16.7626 7.53039 16.4697C7.2375 16.1768 6.76262 16.1768 6.46973 16.4697L7.53039 17.5303ZM12.75 19C12.75 18.5858 12.4142 18.25 12 18.25C11.5858 18.25 11.25 18.5858 11.25 19H12.75ZM11.25 21C11.25 21.4142 11.5858 21.75 12 21.75C12.4142 21.75 12.75 21.4142 12.75 21H11.25ZM17.5303 16.4697C17.2374 16.1768 16.7626 16.1768 16.4697 16.4697C16.1768 16.7626 16.1768 17.2374 16.4697 17.5303L17.5303 16.4697ZM18.4697 19.5303C18.7626 19.8232 19.2374 19.8232 19.5303 19.5303C19.8232 19.2374 19.8232 18.7626 19.5303 18.4697L18.4697 19.5303ZM5.53033 4.46967C5.23744 4.17678 4.76256 4.17678 4.46967 4.46967C4.17678 4.76256 4.17678 5.23744 4.46967 5.53033L5.53033 4.46967ZM6.46967 7.53033C6.76256 7.82322 7.23744 7.82322 7.53033 7.53033C7.82322 7.23744 7.82322 6.76256 7.53033 6.46967L6.46967 7.53033ZM19 11.25C18.5858 11.25 18.25 11.5858 18.25 12C18.25 12.4142 18.5858 12.75 19 12.75V11.25ZM21 12.75C21.4142 12.75 21.75 12.4142 21.75 12C21.75 11.5858 21.4142 11.25 21 11.25V12.75ZM16.4696 6.46967C16.1767 6.76256 16.1767 7.23744 16.4696 7.53033C16.7625 7.82322 17.2374 7.82322 17.5303 7.53033L16.4696 6.46967ZM19.5303 5.53033C19.8232 5.23744 19.8232 4.76256 19.5303 4.46967C19.2374 4.17678 18.7625 4.17678 18.4696 4.46967L19.5303 5.53033ZM12.75 3C12.75 2.58579 12.4142 2.25 12 2.25C11.5858 2.25 11.25 2.58579 11.25 3H12.75ZM11.25 5C11.25 5.41421 11.5858 5.75 12 5.75C12.4142 5.75 12.75 5.41421 12.75 5H11.25ZM14.25 12C14.25 13.2426 13.2426 14.25 12 14.25V15.75C14.0711 15.75 15.75 14.0711 15.75 12H14.25ZM12 14.25C10.7574 14.25 9.75 13.2426 9.75 12H8.25C8.25 14.0711 9.92893 15.75 12 15.75V14.25ZM9.75 12C9.75 10.7574 10.7574 9.75 12 9.75V8.25C9.92893 8.25 8.25 9.92893 8.25 12H9.75ZM12 9.75C13.2426 9.75 14.25 10.7574 14.25 12H15.75C15.75 9.92893 14.0711 8.25 12 8.25V9.75ZM3 12.75H5V11.25H3V12.75ZM5.53039 19.5303L7.53039 17.5303L6.46973 16.4697L4.46973 18.4697L5.53039 19.5303ZM11.25 19V21H12.75V19H11.25ZM16.4697 17.5303L18.4697 19.5303L19.5303 18.4697L17.5303 16.4697L16.4697 17.5303ZM4.46967 5.53033L6.46967 7.53033L7.53033 6.46967L5.53033 4.46967L4.46967 5.53033ZM19 12.75H21V11.25H19V12.75ZM17.5303 7.53033L19.5303 5.53033L18.4696 4.46967L16.4696 6.46967L17.5303 7.53033ZM11.25 3V5H12.75V3H11.25Z"/>
        </symbol>
        <symbol id="github-icon" xmlns="http://www.w3.org/2000/svg">
            <path d="M10.0703 20.5029C10.0703 20.3563 10.038 20.2114 9.97578 20.0786C9.91353 19.9458 9.82284 19.8283 9.71014 19.7345C9.59743 19.6407 9.46546 19.5728 9.32359 19.5356C9.18171 19.4984 9.03341 19.493 8.88917 19.5195C7.58009 19.7597 5.92726 19.7959 5.4878 18.5615C5.10461 17.6055 4.46987 16.771 3.65089 16.1465C3.59246 16.1147 3.53677 16.0781 3.48439 16.0371C3.41272 15.8481 3.2854 15.6852 3.11925 15.5699C2.95311 15.4547 2.75592 15.3925 2.55372 15.3916H2.54884C2.28444 15.3915 2.03077 15.4962 1.84335 15.6827C1.65594 15.8692 1.55004 16.1223 1.54884 16.3867C1.54493 17.2022 2.35984 17.7246 2.69044 17.9014C3.08029 18.2931 3.39359 18.7541 3.61427 19.2608C3.97853 20.2842 5.03712 21.8369 8.08009 21.6368C8.08109 21.6719 8.08204 21.7051 8.08253 21.7354L8.08692 22.003C8.08692 22.2682 8.19228 22.5225 8.37982 22.7101C8.56735 22.8976 8.82171 23.003 9.08692 23.003C9.35214 23.003 9.60649 22.8976 9.79403 22.7101C9.98157 22.5225 10.0869 22.2682 10.0869 22.003L10.082 21.6846C10.0772 21.4951 10.0703 21.2207 10.0703 20.5029ZM20.7373 5.37691C20.7691 5.25191 20.8003 5.11324 20.8277 4.95699C20.9894 3.84258 20.8484 2.70518 20.4195 1.66399C20.3653 1.52825 20.2822 1.40599 20.1758 1.30579C20.0694 1.20559 19.9425 1.12986 19.8037 1.08392C19.4477 0.963798 18.1333 0.727468 15.6197 2.33392C13.5302 1.84221 11.3551 1.84221 9.26565 2.33392C6.76222 0.750998 5.4546 0.965798 5.10206 1.07908C4.95993 1.12316 4.82946 1.19848 4.72021 1.29954C4.61097 1.40059 4.52572 1.5248 4.47071 1.66308C4.03301 2.72426 3.89355 3.88485 4.06739 5.01952C4.09181 5.14745 4.11817 5.26562 4.14552 5.37401C3.31709 6.47745 2.87583 7.82337 2.89015 9.20311C2.88745 9.51094 2.90163 9.8187 2.93263 10.125C3.26663 14.7275 6.26663 16.1094 8.35694 16.584C8.31349 16.709 8.27394 16.8428 8.23878 16.9844C8.17612 17.2417 8.21805 17.5133 8.35538 17.7397C8.49271 17.9662 8.71422 18.1289 8.97135 18.1922C9.22848 18.2556 9.50024 18.2144 9.72703 18.0776C9.95382 17.9409 10.1171 17.7198 10.1812 17.4629C10.2448 17.1297 10.4079 16.8236 10.6489 16.5849C10.7947 16.4573 10.9002 16.2901 10.9527 16.1036C11.0052 15.9172 11.0023 15.7194 10.9445 15.5346C10.8866 15.3497 10.7763 15.1856 10.6269 15.0622C10.4775 14.9389 10.2955 14.8616 10.103 14.8398C6.64894 14.4453 5.14942 13.0381 4.92384 9.9414C4.89885 9.69613 4.88761 9.44965 4.89015 9.20312C4.87411 8.21977 5.19898 7.2612 5.80958 6.49023C5.87093 6.40985 5.93628 6.3326 6.00538 6.25878C6.12781 6.12178 6.21013 5.9537 6.2433 5.77298C6.27646 5.59227 6.25919 5.40591 6.19338 5.23437C6.12592 5.0539 6.07397 4.868 6.03811 4.6787C5.95664 4.14041 5.98337 3.59129 6.11671 3.06346C6.98585 3.30893 7.80383 3.7085 8.53171 4.24314C8.65208 4.32331 8.78828 4.37667 8.93108 4.39958C9.07388 4.4225 9.21994 4.41444 9.35935 4.37596C11.3805 3.82746 13.5113 3.8278 15.5322 4.37696C15.6724 4.4154 15.8192 4.423 15.9626 4.39923C16.106 4.37545 16.2425 4.32088 16.3628 4.23927C17.0872 3.70241 17.9018 3.29926 18.768 3.04884C18.9008 3.56399 18.9305 4.10029 18.8554 4.62696C18.8192 4.83449 18.7626 5.03796 18.6865 5.23439C18.6207 5.40593 18.6034 5.59229 18.6366 5.773C18.6697 5.95372 18.7521 6.1218 18.8745 6.2588C18.9516 6.34571 19.0288 6.43946 19.0981 6.52735C19.7044 7.28527 20.0238 8.23282 20 9.20311C20.0018 9.46272 19.9893 9.72223 19.9624 9.98045C19.7422 13.0361 18.2368 14.4443 14.7666 14.8398C14.5741 14.8617 14.392 14.9391 14.2427 15.0626C14.0933 15.1861 13.983 15.3503 13.9253 15.5352C13.8675 15.7202 13.8647 15.918 13.9172 16.1045C13.9698 16.2911 14.0754 16.4583 14.2212 16.5859C14.4698 16.8309 14.6333 17.1493 14.6875 17.4941C14.7551 17.7618 14.7861 18.0374 14.7798 18.3135V20.6475C14.77 21.2949 14.77 21.7802 14.77 22.0029C14.77 22.2681 14.8754 22.5225 15.0629 22.71C15.2504 22.8976 15.5048 23.0029 15.77 23.0029C16.0352 23.0029 16.2896 22.8976 16.4771 22.71C16.6647 22.5225 16.77 22.2681 16.77 22.0029C16.77 21.7861 16.77 21.3105 16.7798 20.6631V18.3135C16.7878 17.8713 16.7358 17.4301 16.625 17.0019C16.5933 16.8614 16.5545 16.7225 16.5088 16.5859C18.03 16.3332 19.4123 15.5489 20.4094 14.3725C21.4065 13.1962 21.9539 11.7042 21.9541 10.1621C21.987 9.84352 22.0024 9.52337 22 9.20311C22.0222 7.82188 21.5773 6.47363 20.7373 5.37693L20.7373 5.37691Z"/>
        </symbol>
        <symbol id="twitter-icon" xmlns="http://www.w3.org/2000/svg">
            <path d="M22.9912 3.95021C22.9913 3.77357 22.9446 3.60007 22.8559 3.44735C22.7671 3.29464 22.6395 3.16817 22.486 3.08084C22.3324 2.9935 22.1585 2.94842 21.9819 2.95017C21.8052 2.95193 21.6322 3.00046 21.4805 3.09083C20.8952 3.43921 20.265 3.70601 19.6075 3.88383C18.6684 3.07806 17.4708 2.63713 16.2335 2.64164C14.876 2.6432 13.5724 3.17223 12.5977 4.11702C11.623 5.06181 11.0537 6.3484 11.0098 7.70512C8.33383 7.27838 5.90848 5.88164 4.19629 3.78126C4.09313 3.65609 3.96138 3.55757 3.81216 3.494C3.66293 3.43043 3.50061 3.40368 3.33887 3.41601C3.17723 3.42932 3.02127 3.4818 2.88447 3.56892C2.74766 3.65603 2.63414 3.77516 2.55371 3.91601C2.14124 4.63582 1.90435 5.44276 1.86226 6.27131C1.82018 7.09986 1.9741 7.92666 2.31152 8.68456L2.30957 8.68651C2.15792 8.77991 2.03277 8.91066 1.94608 9.06625C1.85939 9.22185 1.81407 9.39708 1.81445 9.57519C1.81262 9.72211 1.82143 9.86898 1.84082 10.0146C1.94296 11.2729 2.50061 12.4507 3.40918 13.3271C3.34755 13.4446 3.30993 13.5731 3.29853 13.7052C3.28712 13.8373 3.30217 13.9704 3.34277 14.0967C3.73889 15.3308 4.58127 16.3727 5.70508 17.0185C4.56333 17.46 3.3305 17.614 2.11523 17.4668C1.89031 17.4386 1.66246 17.4876 1.46908 17.6059C1.2757 17.7242 1.12826 17.9047 1.05095 18.1178C0.973638 18.3309 0.971045 18.5639 1.0436 18.7787C1.11615 18.9935 1.25953 19.1772 1.45023 19.2998C3.54033 20.646 5.97391 21.3617 8.46 21.3613C11.2793 21.393 14.03 20.4921 16.2842 18.7988C18.5385 17.1054 20.17 14.7145 20.9248 11.998C21.2779 10.8146 21.4581 9.58648 21.46 8.35157C21.46 8.28614 21.46 8.21876 21.459 8.15138C21.9811 7.58831 22.3856 6.92668 22.6487 6.20527C22.9118 5.48387 23.0282 4.7172 22.9912 3.95021ZM19.6846 7.16212C19.5194 7.35746 19.4358 7.60891 19.4512 7.86427C19.4609 8.02927 19.46 8.19527 19.46 8.35157C19.4579 9.39511 19.305 10.4329 19.0059 11.4326C18.3894 13.744 17.015 15.7817 15.103 17.2192C13.1909 18.6568 10.8517 19.4111 8.46 19.3613C7.60088 19.3616 6.74472 19.2606 5.90922 19.0606C6.97464 18.7172 7.97081 18.1879 8.8516 17.4971C9.01383 17.3693 9.13256 17.1945 9.19149 16.9967C9.25043 16.7988 9.24669 16.5875 9.18078 16.3918C9.11487 16.1961 8.99003 16.0257 8.82338 15.9038C8.65674 15.7819 8.45645 15.7145 8.25 15.7109C7.41884 15.698 6.62513 15.363 6.03613 14.7764C6.18555 14.7481 6.33399 14.7129 6.48145 14.6709C6.69747 14.6094 6.8865 14.477 7.01812 14.295C7.14973 14.1131 7.21627 13.8921 7.20703 13.6677C7.19778 13.4433 7.11328 13.2285 6.96714 13.058C6.821 12.8874 6.62171 12.7711 6.40137 12.7275C5.91891 12.6323 5.46492 12.427 5.07469 12.1277C4.68446 11.8284 4.3685 11.4432 4.15137 11.002C4.3321 11.0266 4.51399 11.0419 4.69629 11.0479C4.91288 11.0511 5.12489 10.9854 5.30167 10.8603C5.47845 10.7351 5.61084 10.5569 5.67969 10.3516C5.74567 10.1443 5.74228 9.92123 5.67002 9.7161C5.59777 9.51096 5.4606 9.33499 5.2793 9.21485C4.83945 8.92182 4.47915 8.52427 4.23066 8.0578C3.98217 7.59134 3.85326 7.07052 3.85547 6.54201C3.85547 6.47561 3.85742 6.4092 3.86133 6.34377C6.1026 8.43402 9.00966 9.66621 12.0703 9.82326C12.2248 9.82934 12.3787 9.80024 12.5203 9.73816C12.6619 9.67607 12.7875 9.58262 12.8877 9.46486C12.9869 9.34596 13.0571 9.20566 13.0929 9.05501C13.1286 8.90437 13.1289 8.74748 13.0937 8.5967C13.0365 8.35806 13.0074 8.11357 13.0068 7.86818C13.0077 7.01271 13.348 6.19254 13.9529 5.58764C14.5578 4.98274 15.3779 4.64251 16.2334 4.64161C16.6735 4.64043 17.1091 4.7305 17.5127 4.90615C17.9163 5.0818 18.279 5.3392 18.5781 5.66212C18.6935 5.7862 18.8386 5.87871 18.9998 5.93085C19.161 5.98299 19.3328 5.99303 19.499 5.96001C19.9098 5.88006 20.3147 5.7724 20.7109 5.63775C20.4407 6.19072 20.0953 6.70369 19.6846 7.16212Z" />
        </symbol>
        <symbol id="linkedin-icon" xmlns="http://www.w3.org/2000/svg">
            <path d="M17.5 8.999C16.6047 8.99862 15.7233 9.22006 14.9346 9.64353C14.8626 9.45396 14.7346 9.29077 14.5677 9.17564C14.4008 9.06052 14.2028 8.99891 14 8.999H10C9.86866 8.99893 9.73859 9.02474 9.61723 9.07497C9.49587 9.1252 9.3856 9.19885 9.29273 9.29173C9.19985 9.3846 9.1262 9.49487 9.07597 9.61623C9.02574 9.73759 8.99993 9.86766 9 9.999V21.999C8.99993 22.1303 9.02574 22.2604 9.07597 22.3818C9.12619 22.5031 9.19985 22.6134 9.29272 22.7063C9.3856 22.7992 9.49587 22.8728 9.61723 22.923C9.73859 22.9733 9.86866 22.9991 10 22.999H14C14.1313 22.9991 14.2614 22.9733 14.3828 22.923C14.5041 22.8728 14.6144 22.7992 14.7073 22.7063C14.8002 22.6134 14.8738 22.5031 14.924 22.3818C14.9743 22.2604 15.0001 22.1303 15 21.999V16.499C15 16.2338 15.1054 15.9794 15.2929 15.7919C15.4804 15.6044 15.7348 15.499 16 15.499C16.2652 15.499 16.5196 15.6044 16.7071 15.7919C16.8946 15.9794 17 16.2338 17 16.499V21.999C16.9999 22.1303 17.0257 22.2604 17.076 22.3818C17.1262 22.5031 17.1999 22.6134 17.2927 22.7063C17.3856 22.7992 17.4959 22.8728 17.6172 22.923C17.7386 22.9733 17.8687 22.9991 18 22.999H22C22.1313 22.9991 22.2614 22.9733 22.3828 22.923C22.5041 22.8728 22.6144 22.7992 22.7073 22.7063C22.8002 22.6134 22.8738 22.5031 22.924 22.3818C22.9743 22.2604 23.0001 22.1303 23 21.999V14.499C22.9982 13.0409 22.4181 11.643 21.3871 10.6119C20.356 9.58086 18.9581 9.00081 17.5 8.999ZM21 20.999H19V16.499C19 15.7034 18.6839 14.9403 18.1213 14.3777C17.5587 13.8151 16.7957 13.499 16 13.499C15.2044 13.499 14.4413 13.8151 13.8787 14.3777C13.3161 14.9403 13 15.7034 13 16.499V20.999H11V10.999H13V11.7021C13.0001 11.9093 13.0646 12.1114 13.1845 12.2804C13.3043 12.4494 13.4737 12.577 13.6692 12.6456C13.8647 12.7142 14.0767 12.7204 14.2759 12.6634C14.4751 12.6063 14.6517 12.4888 14.7813 12.3271C15.23 11.7572 15.8456 11.3416 16.542 11.1384C17.2384 10.9352 17.9809 10.9545 18.6657 11.1937C19.3506 11.4329 19.9437 11.88 20.3622 12.4726C20.7806 13.0651 21.0036 13.7736 21 14.499V20.999ZM7 8.999H3C2.86866 8.99893 2.73859 9.02474 2.61723 9.07497C2.49587 9.1252 2.3856 9.19885 2.29273 9.29173C2.19985 9.3846 2.1262 9.49487 2.07597 9.61623C2.02574 9.73759 1.99993 9.86766 2 9.999V21.999C1.99993 22.1303 2.02574 22.2604 2.07597 22.3818C2.12619 22.5031 2.19985 22.6134 2.29272 22.7063C2.3856 22.7992 2.49587 22.8728 2.61723 22.923C2.73859 22.9733 2.86866 22.9991 3 22.999H7C7.13134 22.9991 7.26142 22.9733 7.38277 22.923C7.50413 22.8728 7.6144 22.7992 7.70728 22.7063C7.80015 22.6134 7.87381 22.5031 7.92404 22.3818C7.97426 22.2604 8.00008 22.1303 8 21.999V9.999C8.00008 9.86766 7.97426 9.73759 7.92403 9.61623C7.87381 9.49487 7.80015 9.3846 7.70728 9.29173C7.6144 9.19885 7.50413 9.1252 7.38277 9.07497C7.26141 9.02474 7.13134 8.99893 7 8.999ZM6 20.999H4V10.999H6V20.999ZM5.01465 1.542C4.57701 1.5158 4.13862 1.5789 3.72613 1.72745C3.31364 1.87599 2.93567 2.10689 2.61522 2.40609C2.29476 2.7053 2.03852 3.06656 1.86206 3.4679C1.6856 3.86924 1.59262 4.30229 1.58878 4.74069C1.58493 5.1791 1.6703 5.61371 1.83969 6.01808C2.00907 6.42246 2.25894 6.78816 2.5741 7.09294C2.88925 7.39772 3.26311 7.63522 3.67293 7.79098C4.08275 7.94674 4.51997 8.01752 4.958 7.999H4.98632C5.42512 8.02506 5.86462 7.96138 6.27798 7.81185C6.69133 7.66232 7.06986 7.43007 7.39042 7.12931C7.71099 6.82854 7.96686 6.46557 8.14241 6.06258C8.31796 5.65958 8.40949 5.22503 8.41142 4.78546C8.41335 4.34589 8.32563 3.91055 8.15362 3.50603C7.98162 3.10151 7.72894 2.73631 7.41102 2.43275C7.09311 2.12918 6.71663 1.89363 6.30461 1.74047C5.89258 1.58732 5.45365 1.51979 5.01464 1.542H5.01465ZM4.98633 5.999H4.958C4.78507 6.02 4.60964 6.00378 4.44349 5.95143C4.27734 5.89908 4.1243 5.81181 3.99464 5.69547C3.86498 5.57912 3.7617 5.4364 3.69172 5.27688C3.62173 5.11735 3.58667 4.9447 3.58887 4.77051C3.58887 4.02441 4.14844 3.54199 5.01465 3.54199C5.18935 3.5187 5.36701 3.53312 5.53567 3.58428C5.70432 3.63543 5.86006 3.72213 5.99239 3.83854C6.12471 3.95495 6.23056 4.09837 6.30279 4.25913C6.37502 4.41989 6.41197 4.59427 6.41113 4.77051C6.41113 5.5166 5.85156 5.999 4.98633 5.999Z"/>
        </symbol>
        <symbol id="lines-vector" fill="none" xmlns="http://www.w3.org/2000/svg">
            <path opacity="0.7" d="M2.80345 51.8697L262.09 -134.416M1.17712 70.609L276.828 -127.774M5.82487 84.7034L289.325 -119.463M13.8773 96.2964L303.733 -112.573M19.3259 109.805L318.307 -105.806M26.3894 122.124L334 -99.8618M33.3691 134.507L345.143 -90.5662M40.3625 146.873L359.61 -83.7165M47.6961 158.995L370.682 -74.3626M53.7216 172.078L379.289 -63.1804M61.0689 184.182L389.465 -53.1658M69.0981 195.789L399.43 -42.9965M75.2673 208.751L393.901 -21.3809" stroke-width="2" stroke-miterlimit="10" stroke-linecap="round" stroke-linejoin="round" stroke-dasharray="0.3 0.3"/>
        </symbol>
        <symbol id="ux-service" xmlns="http://www.w3.org/2000/svg">
            <path d="M4.5 5L5.03033 4.46967C4.81583 4.25517 4.49324 4.191 4.21299 4.30709C3.93273 4.42318 3.75 4.69665 3.75 5H4.5ZM4.5 16H3.75C3.75 16.4142 4.08579 16.75 4.5 16.75V16ZM20.5 16V16.75C20.9142 16.75 21.25 16.4142 21.25 16H20.5ZM20.5 5H21.25C21.25 4.69665 21.0673 4.42318 20.787 4.30709C20.5068 4.191 20.1842 4.25517 19.9697 4.46967L20.5 5ZM16.5 9L15.9697 9.53033C16.2626 9.82322 16.7374 9.82322 17.0303 9.53033L16.5 9ZM8.5 9L7.96967 9.53033C8.26256 9.82322 8.73744 9.82322 9.03033 9.53033L8.5 9ZM12.5 5L13.0303 4.46967C12.7374 4.17678 12.2626 4.17678 11.9697 4.46967L12.5 5ZM4.5 18.25C4.08579 18.25 3.75 18.5858 3.75 19C3.75 19.4142 4.08579 19.75 4.5 19.75V18.25ZM20.5 19.75C20.9142 19.75 21.25 19.4142 21.25 19C21.25 18.5858 20.9142 18.25 20.5 18.25V19.75ZM3.75 5V16H5.25V5H3.75ZM4.5 16.75H20.5V15.25H4.5V16.75ZM21.25 16V5H19.75V16H21.25ZM19.9697 4.46967L15.9697 8.46967L17.0303 9.53033L21.0303 5.53033L19.9697 4.46967ZM3.96967 5.53033L7.96967 9.53033L9.03033 8.46967L5.03033 4.46967L3.96967 5.53033ZM9.03033 9.53033L13.0303 5.53033L11.9697 4.46967L7.96967 8.46967L9.03033 9.53033ZM11.9697 5.53033L15.9697 9.53033L17.0303 8.46967L13.0303 4.46967L11.9697 5.53033ZM4.5 19.75H20.5V18.25H4.5V19.75Z"/>
        </symbol>
        <symbol id="web-development" xmlns="http://www.w3.org/2000/svg">
            <path d="M20.75 12C20.75 16.5563 17.0563 20.25 12.5 20.25V21.75C17.8848 21.75 22.25 17.3848 22.25 12H20.75ZM12.5 20.25C7.94365 20.25 4.25 16.5563 4.25 12H2.75C2.75 17.3848 7.11522 21.75 12.5 21.75V20.25ZM4.25 12C4.25 7.44365 7.94365 3.75 12.5 3.75V2.25C7.11522 2.25 2.75 6.61522 2.75 12H4.25ZM12.5 3.75C17.0563 3.75 20.75 7.44365 20.75 12H22.25C22.25 6.61522 17.8848 2.25 12.5 2.25V3.75ZM12.5 3C12.05 3.6 12.0497 3.5998 12.0495 3.59961C12.0494 3.59956 12.0492 3.59939 12.0491 3.59929C12.0488 3.5991 12.0486 3.59895 12.0485 3.59885C12.0482 3.59864 12.0482 3.59862 12.0484 3.59877C12.0488 3.59908 12.0501 3.6001 12.0523 3.60183C12.0568 3.6053 12.0649 3.61163 12.0764 3.62081C12.0994 3.63917 12.1358 3.66893 12.1838 3.71007C12.2798 3.79238 12.4218 3.92001 12.5947 4.09283C12.9407 4.43885 13.4077 4.96357 13.876 5.66603C14.8106 7.06805 15.75 9.17573 15.75 12H17.25C17.25 8.82427 16.1894 6.43195 15.124 4.83397C14.5923 4.03643 14.0593 3.43615 13.6553 3.03217C13.4532 2.82999 13.2827 2.67637 13.16 2.57118C13.0986 2.51857 13.0491 2.47802 13.0134 2.4495C12.9956 2.43525 12.9813 2.42399 12.9706 2.41575C12.9653 2.41162 12.9609 2.40825 12.9574 2.40562C12.9557 2.40431 12.9542 2.40319 12.953 2.40225C12.9524 2.40178 12.9518 2.40136 12.9513 2.40098C12.9511 2.4008 12.9507 2.40055 12.9506 2.40046C12.9503 2.40022 12.95 2.4 12.5 3ZM15.75 12C15.75 14.8243 14.8106 16.9319 13.876 18.334C13.4077 19.0364 12.9407 19.5611 12.5947 19.9072C12.4218 20.08 12.2798 20.2076 12.1838 20.2899C12.1358 20.3311 12.0994 20.3608 12.0764 20.3792C12.0649 20.3884 12.0568 20.3947 12.0523 20.3982C12.0501 20.3999 12.0488 20.4009 12.0484 20.4012C12.0482 20.4014 12.0482 20.4014 12.0485 20.4012C12.0486 20.401 12.0488 20.4009 12.0491 20.4007C12.0492 20.4006 12.0494 20.4004 12.0495 20.4004C12.0497 20.4002 12.05 20.4 12.5 21C12.95 21.6 12.9503 21.5998 12.9506 21.5995C12.9507 21.5994 12.9511 21.5992 12.9513 21.599C12.9518 21.5986 12.9524 21.5982 12.953 21.5977C12.9542 21.5968 12.9557 21.5957 12.9574 21.5944C12.9609 21.5918 12.9653 21.5884 12.9706 21.5843C12.9813 21.576 12.9956 21.5648 13.0134 21.5505C13.0491 21.522 13.0986 21.4814 13.16 21.4288C13.2827 21.3236 13.4532 21.17 13.6553 20.9678C14.0593 20.5639 14.5923 19.9636 15.124 19.166C16.1894 17.5681 17.25 15.1757 17.25 12H15.75ZM12.5 21C12.95 20.4 12.9503 20.4002 12.9505 20.4004C12.9506 20.4004 12.9508 20.4006 12.9509 20.4007C12.9512 20.4009 12.9514 20.401 12.9515 20.4012C12.9518 20.4014 12.9518 20.4014 12.9516 20.4012C12.9512 20.4009 12.9499 20.3999 12.9477 20.3982C12.9432 20.3947 12.9351 20.3884 12.9236 20.3792C12.9006 20.3608 12.8642 20.3311 12.8162 20.2899C12.7202 20.2076 12.5782 20.08 12.4053 19.9072C12.0593 19.5611 11.5923 19.0364 11.124 18.334C10.1894 16.9319 9.25 14.8243 9.25 12H7.75C7.75 15.1757 8.81065 17.5681 9.87596 19.166C10.4077 19.9636 10.9407 20.5639 11.3447 20.9678C11.5468 21.17 11.7173 21.3236 11.84 21.4288C11.9014 21.4814 11.9509 21.522 11.9866 21.5505C12.0044 21.5648 12.0187 21.576 12.0294 21.5843C12.0347 21.5884 12.0391 21.5918 12.0426 21.5944C12.0443 21.5957 12.0458 21.5968 12.047 21.5977C12.0476 21.5982 12.0482 21.5986 12.0487 21.599C12.0489 21.5992 12.0493 21.5994 12.0494 21.5995C12.0497 21.5998 12.05 21.6 12.5 21ZM9.25 12C9.25 9.17573 10.1894 7.06805 11.124 5.66603C11.5923 4.96357 12.0593 4.43885 12.4053 4.09283C12.5782 3.92001 12.7202 3.79238 12.8162 3.71007C12.8642 3.66893 12.9006 3.63917 12.9236 3.62081C12.9351 3.61163 12.9432 3.6053 12.9477 3.60183C12.9499 3.6001 12.9512 3.59908 12.9516 3.59877C12.9518 3.59862 12.9518 3.59864 12.9515 3.59885C12.9514 3.59895 12.9512 3.5991 12.9509 3.59929C12.9508 3.59939 12.9506 3.59956 12.9505 3.59961C12.9503 3.5998 12.95 3.6 12.5 3C12.05 2.4 12.0497 2.40022 12.0494 2.40046C12.0493 2.40055 12.0489 2.4008 12.0487 2.40098C12.0482 2.40136 12.0476 2.40178 12.047 2.40225C12.0458 2.40319 12.0443 2.40431 12.0426 2.40562C12.0391 2.40825 12.0347 2.41162 12.0294 2.41575C12.0187 2.42399 12.0044 2.43525 11.9866 2.4495C11.9509 2.47802 11.9014 2.51857 11.84 2.57118C11.7173 2.67637 11.5468 2.82999 11.3447 3.03217C10.9407 3.43615 10.4077 4.03643 9.87596 4.83397C8.81065 6.43195 7.75 8.82427 7.75 12H9.25ZM21.5 11.25H3.5V12.75H21.5V11.25Z"/>
        </symbol>
        <symbol id="arrow-right" xmlns="http://www.w3.org/2000/svg">
            <path d="M9.46967 16.4697C9.17678 16.7626 9.17678 17.2374 9.46967 17.5303C9.76256 17.8232 10.2374 17.8232 10.5303 17.5303L9.46967 16.4697ZM15 12L15.5303 12.5303C15.671 12.3897 15.75 12.1989 15.75 12C15.75 11.8011 15.671 11.6103 15.5303 11.4697L15 12ZM10.5303 6.46967C10.2374 6.17678 9.76256 6.17678 9.46967 6.46967C9.17678 6.76256 9.17678 7.23744 9.46967 7.53033L10.5303 6.46967ZM10.5303 17.5303L15.5303 12.5303L14.4697 11.4697L9.46967 16.4697L10.5303 17.5303ZM15.5303 11.4697L10.5303 6.46967L9.46967 7.53033L14.4697 12.5303L15.5303 11.4697Z"/>
        </symbol>
        <symbol id="arrow-left" xmlns="http://www.w3.org/2000/svg">
            <path d="M14.5303 7.53033C14.8232 7.23744 14.8232 6.76256 14.5303 6.46967C14.2374 6.17678 13.7626 6.17678 13.4697 6.46967L14.5303 7.53033ZM9 12L8.46967 11.4697C8.32902 11.6103 8.25 11.8011 8.25 12C8.25 12.1989 8.32902 12.3897 8.46967 12.5303L9 12ZM13.4697 17.5303C13.7626 17.8232 14.2374 17.8232 14.5303 17.5303C14.8232 17.2374 14.8232 16.7626 14.5303 16.4697L13.4697 17.5303ZM13.4697 6.46967L8.46967 11.4697L9.53033 12.5303L14.5303 7.53033L13.4697 6.46967ZM8.46967 12.5303L13.4697 17.5303L14.5303 16.4697L9.53033 11.4697L8.46967 12.5303Z"/>
        </symbol>
        <symbol id="link" xmlns="http://www.w3.org/2000/svg">
            <path d="M15 15.25C14.5858 15.25 14.25 15.5858 14.25 16C14.25 16.4142 14.5858 16.75 15 16.75V15.25ZM15 7.25C14.5858 7.25 14.25 7.58579 14.25 8C14.25 8.41421 14.5858 8.75 15 8.75V7.25ZM8 11.25C7.58579 11.25 7.25 11.5858 7.25 12C7.25 12.4142 7.58579 12.75 8 12.75V11.25ZM16 12.75C16.4142 12.75 16.75 12.4142 16.75 12C16.75 11.5858 16.4142 11.25 16 11.25V12.75ZM9 8.75C9.41421 8.75 9.75 8.41421 9.75 8C9.75 7.58579 9.41421 7.25 9 7.25V8.75ZM9 16.75C9.41421 16.75 9.75 16.4142 9.75 16C9.75 15.5858 9.41421 15.25 9 15.25V16.75ZM17 8.75C18.7949 8.75 20.25 10.2051 20.25 12H21.75C21.75 9.37665 19.6234 7.25 17 7.25V8.75ZM20.25 12C20.25 13.7949 18.7949 15.25 17 15.25V16.75C19.6234 16.75 21.75 14.6234 21.75 12H20.25ZM17 15.25H15V16.75H17V15.25ZM17 7.25H15V8.75H17V7.25ZM8 12.75H16V11.25H8V12.75ZM7 15.25C5.20507 15.25 3.75 13.7949 3.75 12H2.25C2.25 14.6234 4.37665 16.75 7 16.75V15.25ZM3.75 12C3.75 10.2051 5.20507 8.75 7 8.75V7.25C4.37665 7.25 2.25 9.37665 2.25 12H3.75ZM7 8.75H9V7.25H7V8.75ZM7 16.75H9V15.25H7V16.75Z"/>
        </symbol>
        <symbol id="email-icon" xmlns="http://www.w3.org/2000/svg">
            <path d="M10.5858 12.5857L11.1161 12.0554L11.1161 12.0554L10.5858 12.5857ZM13.4142 12.5857L12.8839 12.0554L12.8839 12.0554L13.4142 12.5857ZM4 5.75H20V4.25H4V5.75ZM20.25 6V18H21.75V6H20.25ZM20 18.25H4V19.75H20V18.25ZM3.75 18V6H2.25V18H3.75ZM4 18.25C3.86193 18.25 3.75 18.1381 3.75 18H2.25C2.25 18.9665 3.0335 19.75 4 19.75V18.25ZM20.25 18C20.25 18.1381 20.1381 18.25 20 18.25V19.75C20.9665 19.75 21.75 18.9665 21.75 18H20.25ZM4 4.25C3.51696 4.25 3.07843 4.4467 2.76256 4.76256L3.82322 5.82322C3.86929 5.77716 3.93076 5.75 4 5.75V4.25ZM2.76256 4.76256C2.4467 5.07843 2.25 5.51696 2.25 6H3.75C3.75 5.93076 3.77716 5.86929 3.82322 5.82322L2.76256 4.76256ZM20 5.75C20.0692 5.75 20.1307 5.77716 20.1768 5.82322L21.2374 4.76256C20.9216 4.4467 20.483 4.25 20 4.25V5.75ZM20.1768 5.82322C20.2228 5.86928 20.25 5.93076 20.25 6H21.75C21.75 5.51696 21.5533 5.07843 21.2374 4.76256L20.1768 5.82322ZM10.0555 13.1161C11.1294 14.19 12.8706 14.19 13.9445 13.1161L12.8839 12.0554C12.3957 12.5436 11.6043 12.5436 11.1161 12.0554L10.0555 13.1161ZM2.76256 5.82323L10.0555 13.1161L11.1161 12.0554L3.82322 4.76256L2.76256 5.82323ZM13.9445 13.1161L21.2374 5.82323L20.1768 4.76256L12.8839 12.0554L13.9445 13.1161Z"/>
        </symbol>
        <symbol id="menu" xmlns="http://www.w3.org/2000/svg">
            <path d="M4 16.25C3.58579 16.25 3.25 16.5858 3.25 17C3.25 17.4142 3.58579 17.75 4 17.75V16.25ZM20 17.75C20.4142 17.75 20.75 17.4142 20.75 17C20.75 16.5858 20.4142 16.25 20 16.25V17.75ZM4 11.25C3.58579 11.25 3.25 11.5858 3.25 12C3.25 12.4142 3.58579 12.75 4 12.75V11.25ZM20 12.75C20.4142 12.75 20.75 12.4142 20.75 12C20.75 11.5858 20.4142 11.25 20 11.25V12.75ZM4 6.25C3.58579 6.25 3.25 6.58579 3.25 7C3.25 7.41421 3.58579 7.75 4 7.75V6.25ZM20 7.75C20.4142 7.75 20.75 7.41421 20.75 7C20.75 6.58579 20.4142 6.25 20 6.25V7.75ZM4 17.75H20V16.25H4V17.75ZM4 12.75H20V11.25H4V12.75ZM4 7.75H20V6.25H4V7.75Z"/>
        </symbol>
    </defs>
</svg>
